<?xml version="1.0" encoding="utf-8"?>
<!-- Generator: Adobe Illustrator 19.2.1, SVG Export Plug-In . SVG Version: 6.00 Build 0)  -->
<svg version="1.1" id="Layer_1" xmlns="http://www.w3.org/2000/svg" xmlns:xlink="http://www.w3.org/1999/xlink" x="0px" y="0px"
	 viewBox="0 0 60 60" style="enable-background:new 0 0 60 60;" xml:space="preserve">
<style type="text/css">
	.st0{fill:#64CBEE;}
	.st1{fill:#FFFFFF;}
	.st2{fill:#F05F5D;}
	.st3{fill:#507CBD;}
</style>
<g id="fb_icon">
	<path class="st3" d="M30,60c16.6,0,30-13.4,30-30C60,13.4,46.6,0,30,0C13.4,0,0,13.4,0,30C0,46.6,13.4,60,30,60"/>
	<path class="st1" d="M22.8,24.9h3.1v-3c0-1.3,0-3.4,1-4.6c1-1.3,2.4-2.3,4.8-2.3c3.9,0,5.6,0.6,5.6,0.6l-0.8,4.6
		c0,0-1.3-0.4-2.5-0.4c-1.2,0-2.3,0.4-2.3,1.6v3.5h4.9l-0.3,4.5h-4.6V45h-5.8V29.4h-3.1V24.9z"/>
</g>
</svg>
