<?xml version="1.0" encoding="utf-8"?>
<!-- Generator: Adobe Illustrator 19.2.1, SVG Export Plug-In . SVG Version: 6.00 Build 0)  -->
<svg version="1.1" id="Layer_1" xmlns="http://www.w3.org/2000/svg" xmlns:xlink="http://www.w3.org/1999/xlink" x="0px" y="0px"
	 viewBox="0 0 60 60" style="enable-background:new 0 0 60 60;" xml:space="preserve">
<style type="text/css">
	.st0{fill:#64CBEE;}
	.st1{fill:#FFFFFF;}
	.st2{fill:#F05F5D;}
	.st3{fill:#507CBD;}
</style>
<g id="Twitter_icon">
	<path class="st0" d="M30,60c16.6,0,30-13.4,30-30C60,13.4,46.6,0,30,0C13.4,0,0,13.4,0,30C0,46.6,13.4,60,30,60"/>
	<path class="st1" d="M45.1,22.1c-1.1,0.5-2.3,0.8-3.5,1c1.3-0.8,2.3-2,2.7-3.4c-1.2,0.7-2.5,1.2-3.9,1.5c-1.1-1.2-2.7-1.9-4.5-1.9
		c-3.4,0-6.2,2.8-6.2,6.2c0,0.5,0.1,1,0.2,1.4c-5.1-0.3-9.7-2.7-12.7-6.4c-0.5,0.9-0.8,2-0.8,3.1c0,2.1,1.1,4,2.7,5.1
		c-1,0-2-0.3-2.8-0.8v0.1c0,3,2.1,5.5,4.9,6c-0.5,0.1-1.1,0.2-1.6,0.2c-0.4,0-0.8,0-1.2-0.1c0.8,2.4,3.1,4.2,5.8,4.3
		C22,40,19.4,41,16.5,41c-0.5,0-1,0-1.5-0.1c2.7,1.7,6,2.8,9.5,2.8c11.3,0,17.5-9.4,17.5-17.5c0-0.3,0-0.5,0-0.8
		C43.2,24.5,44.2,23.4,45.1,22.1"/>
</g>
</svg>
